<?xml version="1.0" encoding="utf-8"?>
<!-- Generator: Adobe Illustrator 16.0.3, SVG Export Plug-In . SVG Version: 6.00 Build 0)  -->
<!DOCTYPE svg PUBLIC "-//W3C//DTD SVG 1.1//EN" "http://www.w3.org/Graphics/SVG/1.1/DTD/svg11.dtd">
<svg version="1.1" id="Layer_1" xmlns="http://www.w3.org/2000/svg" xmlns:xlink="http://www.w3.org/1999/xlink" x="0px" y="0px"
	 width="320px" height="320px" viewBox="25 -32.5 320 320" enable-background="new 25 -32.5 320 320" xml:space="preserve">
<g id="Layer_1_1_">
	<g>
		<path fill="#4A7628" d="M200.192,181.287c-0.616,4.459-3.437,7.609-8.047,7.609c-4.863,0-8.271-3.946-8.271-9.428
			c0-4.428,2.381-9.736,8.604-9.736c4.843,0,7.224,3.664,7.299,5.923h-0.509c-0.229-2.639-2.795-5.402-6.79-5.402
			c-6.02,0-8.094,5.43-8.094,9.215c0,4.665,2.82,8.919,7.761,8.919c4.408,0,6.969-3.05,7.533-7.102h0.515V181.287z"/>
		<path fill="#4A7628" d="M203.931,179.188v9.275h-0.516v-18.288h0.516v8.505h12.806v-8.505h0.513v18.288h-0.513v-9.275H203.931z"/>
		<path fill="#4A7628" d="M222.605,182.437l-2.434,6.024h-0.588l7.425-18.286h0.664l7.224,18.286h-0.563l-2.409-6.024H222.605z
			 M231.722,181.93l-4.356-11.248h-0.052l-4.509,11.248H231.722z"/>
		<path fill="#4A7628" d="M237.77,188.461h-0.515v-18.286h7.48c3.765,0,5.507,1.536,5.583,4.681c0.05,2.412-1.355,4.159-3.919,4.722
			v0.053c3.098,0.4,3.611,2.15,3.611,5.069c0,1.096,0.103,3.249,0.438,3.764h-0.563c-0.308-0.77-0.387-2.668-0.387-3.844
			c0-2.997-0.641-4.734-4.841-4.734h-6.888V188.461z M237.77,179.371h6.836c2.689,0,5.227-1.361,5.201-4.559
			c-0.027-2.593-1.458-4.131-4.944-4.131h-7.093V179.371z"/>
		<path fill="#4A7628" d="M254.187,170.175h0.513v18.286h-0.513V170.175L254.187,170.175z"/>
		<path fill="#4A7628" d="M256.928,170.682v-0.507h13.679v0.507h-6.584v17.779h-0.509v-17.779H256.928z"/>
		<path fill="#4A7628" d="M274.143,182.437l-2.433,6.024h-0.591l7.427-18.286h0.668l7.222,18.286h-0.563l-2.408-6.024H274.143z
			 M283.261,181.93l-4.354-11.248h-0.054l-4.506,11.248H283.261z"/>
		<path fill="#4A7628" d="M288.615,170.175h7.863c2.867,0,5.148,1.511,5.148,4.56c0,2.204-1.64,4.023-3.869,4.173v0.054
			c2.383,0.08,4.432,1.712,4.432,4.533c0,3.275-2.511,4.969-6.021,4.969h-7.554V170.175L288.615,170.175z M289.124,178.679h7.354
			c2.433,0,4.636-1.337,4.636-3.944c0-2.768-2.023-4.053-4.636-4.053h-7.354V178.679z M289.124,187.946h7.273
			c2.975,0,5.28-1.431,5.28-4.427c0-3.209-2.613-4.332-5.2-4.332h-7.354V187.946z"/>
		<path fill="#4A7628" d="M316.893,187.946v0.515h-11.194v-18.286h0.514v17.771H316.893z"/>
		<path fill="#4A7628" d="M319.815,187.946h11.729v0.515h-12.243v-18.286h12.14v0.507h-11.626v7.997h10.935v0.51h-10.935V187.946z"
			/>
	</g>
	<g>
		<path fill="#4A7628" d="M185.739,201.478h9.188v0.483h-9.188v8.757h-0.488v-17.275h10.646v0.483h-10.157V201.478L185.739,201.478z
			"/>
		<path fill="#4A7628" d="M205.522,193.027c5.179,0,7.965,4.145,7.965,9.055c0,4.907-2.785,9.05-7.965,9.05
			c-5.175,0-7.956-4.143-7.956-9.05C197.566,197.172,200.346,193.027,205.522,193.027z M205.522,210.642
			c4.649,0,7.433-3.578,7.48-8.56c-0.048-4.986-2.831-8.564-7.48-8.564c-4.642,0-7.422,3.578-7.472,8.564
			C198.099,207.063,200.88,210.642,205.522,210.642z"/>
		<path fill="#4A7628" d="M228.92,193.442h0.482v10.836c0,4.574-2.271,6.854-6.338,6.854c-4.063,0-6.341-2.279-6.341-6.854v-10.836
			h0.488v10.836c0,4.12,1.909,6.363,5.853,6.363c3.944,0,5.857-2.243,5.857-6.363v-10.836H228.92z"/>
		<path fill="#4A7628" d="M233.227,193.442h0.726l11.807,16.671h0.048v-16.671h0.486v17.275h-0.728l-11.808-16.67h-0.05v16.67
			h-0.481V193.442L233.227,193.442z"/>
		<path fill="#4A7628" d="M250.088,193.442h6.049c3.438,0,7.357,1.839,7.357,8.64c0,6.191-3.942,8.636-8.105,8.636h-5.3
			L250.088,193.442L250.088,193.442z M250.573,210.237h4.933c4.094,0,7.503-2.595,7.503-8.155c0-6.46-3.533-8.156-6.992-8.156
			h-5.443V210.237L250.573,210.237z"/>
		<path fill="#4A7628" d="M268.233,205.036l-2.296,5.682h-0.557l7.014-17.275h0.631l6.823,17.275h-0.533l-2.275-5.682H268.233z
			 M276.848,204.543l-4.114-10.617h-0.049l-4.256,10.617H276.848z"/>
		<path fill="#4A7628" d="M280.355,193.926v-0.483h12.92v0.483h-6.215v16.792h-0.483v-16.792H280.355z"/>
		<path fill="#4A7628" d="M295.355,193.442h0.486v17.275h-0.486V193.442z"/>
		<path fill="#4A7628" d="M307.09,193.027c5.178,0,7.96,4.145,7.96,9.055c0,4.907-2.781,9.05-7.96,9.05
			c-5.178,0-7.961-4.143-7.961-9.05C299.129,197.172,301.911,193.027,307.09,193.027z M307.09,210.642
			c4.646,0,7.428-3.578,7.477-8.56c-0.049-4.986-2.831-8.564-7.477-8.564c-4.646,0-7.427,3.578-7.476,8.564
			C299.663,207.063,302.444,210.642,307.09,210.642z"/>
		<path fill="#4A7628" d="M318.291,193.442h0.726l11.806,16.671h0.049v-16.671h0.486v17.275h-0.729l-11.807-16.67h-0.047v16.67
			h-0.484V193.442z"/>
	</g>
	<g>
		<path fill="#4A7628" d="M195.809,142.584l5.309,15.87c0.378,1.132,1.134,3.553,1.922,4.396c0.5,0.55,1.17,0.764,1.894,0.84v0.967
			h-8.571v-0.967c0.988-0.077,2.826,0.213,2.826-1.302c0-0.473-0.321-1.437-0.492-1.868l-1.196-3.587h-7.437l-0.377,1.105
			c-0.296,0.845-1.169,3.126-1.169,3.968c0,1.486,1.546,1.684,2.739,1.684v0.967h-7.464v-0.967c2.51-0.029,3.294-2.448,3.967-4.456
			l5.306-15.915L195.809,142.584z M193.824,145.788l-3.291,9.803h6.557L193.824,145.788z"/>
		<path fill="#4A7628" d="M213.305,154.251v5.452c0,3.238,0.405,3.991,2.714,3.991v0.965h-8.313v-0.965
			c2.303,0,2.708-0.753,2.708-3.991v-11.374c0-2.359,0.15-4.06-2.708-4.06v-0.95h8.575c3.41,0,7.786,1.163,7.786,5.333
			c0,2.971-2.684,4.988-5.485,5.331l3.905,6.969c1.083,1.866,1.345,2.832,3.708,2.74v0.965h-4.842l-5.978-10.406H213.305
			L213.305,154.251z M213.305,153.291h1.518c2.946,0.199,6.18-1.285,6.18-4.639c0-2.885-2.563-4.383-5.191-4.383
			c-2.45,0-2.506,0.994-2.506,3.184V153.291z"/>
		<path fill="#4A7628" d="M229.051,164.657v-0.963c2.304,0,2.685-0.753,2.685-3.991v-11.436c0-3.202-0.381-4-2.685-4v-0.95h6.33
			c3.615,0,10.174-0.214,10.204,4.917c0.03,3.709-3.122,4.731-6.212,5.165v0.09c3.237,0.09,7.439,1.576,7.439,5.394
			c0,4.517-4.841,5.774-8.486,5.774H229.051L229.051,164.657z M236.313,152.909c3.177,0,6.211-0.612,6.211-4.458
			c0-3.034-2.621-4.182-5.277-4.182c-2.275,0-2.627,0.997-2.627,3.016v5.624H236.313L236.313,152.909z M234.618,160.781
			c0,2.037,0.497,2.913,2.772,2.913c3.15,0,6.065-1.105,6.065-4.691c0-4.382-3.617-5.132-7.229-5.132h-1.609V160.781z"/>
		<path fill="#4A7628" d="M258.823,164.979c-6.065,0-9.418-5.424-9.418-10.995c0-5.532,3.499-10.987,9.509-10.987
			c6.094,0,9.447,5.595,9.447,11.169C268.361,159.817,264.86,164.979,258.823,164.979 M252.757,153.873
			c0,3.615,1.286,10.145,6.065,10.145c5.019,0,6.184-6.206,6.184-10.084c0-3.797-1.254-9.977-6.094-9.977
			C254.072,143.957,252.757,150.106,252.757,153.873"/>
		<path fill="#4A7628" d="M287.374,159.206v-10.938c0-3.201-0.382-3.998-2.711-3.998v-0.95h6.763v0.95
			c-2.307,0-2.712,0.796-2.712,3.998v16.392h-0.99l-12.628-17.754v12.798c0,3.238,0.38,3.991,2.74,3.991h-0.028v0.965h-6.794v-0.965
			c2.334,0,2.74-0.753,2.74-3.991v-11.436c0-3.202-0.407-3.998-2.74-3.998v-0.95h5.072L287.374,159.206z"/>
		<path fill="#4A7628" d="M309.216,159.206v-10.938c0-3.201-0.382-3.998-2.715-3.998v-0.95h6.766v0.95
			c-2.306,0-2.713,0.796-2.713,3.998v16.392h-0.991l-12.622-17.754v12.798c0,3.238,0.374,3.991,2.737,3.991h-0.028v0.965h-6.797
			v-0.965c2.332,0,2.743-0.753,2.743-3.991v-11.436c0-3.202-0.411-3.998-2.743-3.998v-0.95h5.075L309.216,159.206z"/>
		<path fill="#4A7628" d="M327.554,157.776h-0.848c0.031-3.736-2.477-3.905-4.78-3.763h-1.194v6.736c0,2.36,0.321,2.942,2.973,2.942
			c4.755,0,5.601-1.195,8.519-4.869l0.699,0.292l-2.157,5.542h-15.631v-0.965c2.303,0,2.712-0.751,2.712-3.989v-11.436
			c0-3.203-0.409-4-2.712-4v-0.95h15.249l2.043,4.979l-0.73,0.443c-2.564-3.417-3.527-4.473-7.814-4.473
			c-2.977,0-3.149,0.474-3.149,3.326v5.453h1.194c2.743,0,4.609-0.492,4.813-3.639h0.816v8.368H327.554z"/>
	</g>
</g>
<g id="Layer_2">
	<g>
		<path fill="#A3D783" d="M282.613,117.854c-4.826,4.109-31.525,23.284-71.022-16.211l-0.438,0.144
			c-6.966-6.777-14.321-15.317-19.499-25.002c-12.95-24.234-20.521-23.588-61.604-28.278c-41.081-4.691-64.833-8.475-76.379-17.279
			c0,0-2.365-0.629-1.22,1.725c1.137,2.358,3.492,11.99-1.23,32.451c-4.721,20.461,10.197,31.777,10.197,31.777
			s1.313,0.672-0.294-1.55c-1.6-2.217-12.018-18.147,0.283-45.254c0,0,1.248-4.006,4.588-2.211c3.339,1.793,11.4,7.85,75.155,9.523
			c0,0,33.777,0.044,41.263,12.604c5.25,8.812,14.977,23.068,28.861,34.827C220.643,114.233,254.465,143.257,282.613,117.854z"/>
		<path fill="#A3D783" d="M282.613,117.854c0.52-0.443,0.788-0.712,0.788-0.712C283.14,117.389,282.876,117.618,282.613,117.854z"/>
	</g>
	<path fill="#A3D783" d="M215.22,119.485l-0.725,0.346c-15.606-8.742-47.346-26.074-65.681-32.938
		c-24.986-9.351-54.542-9.284-110.92,28.297c0,0-15.187,10.693-3.43,10.312c11.75-0.387,27.662,0.409,25.513,8.233
		c-2.148,7.825-10.446,13.401,4.044,16.45c14.496,3.048,46.353-0.53,35.565,9.403c-10.784,9.936-7.252,14.519,10.276,14.252
		c17.528-0.269,35.354-1.52,32.611,2.615c-2.743,4.141-1.104,3.438,3.458,3.388c4.563-0.051,23.834-1.271,15.687,6.699
		c-8.147,7.967-22.416,21.726,10.365,40.321c0,0-25.546-18.21-10.949-32.475c14.597-14.266,13.616-16.49-5.401-16.963
		c-19.016-0.475,6.231-9.771-26.071-9.403c-32.299,0.366-34.066,0.958-27.331-6.556c6.734-7.518,8.853-13.899-18.108-12.672
		c-26.957,1.221-20.31-11.459-20.509-14.563c-0.199-3.113,0.432-10.245-6.834-13.032c-7.267-2.781-11.878-1.65,6.966-15.219
		c18.85-13.572,54.516-30.213,92.086-12.683c29.898,13.945,42.365,20.54,56.251,27.698l-0.01,0.005
		c36.33,20.896,55.998,7.03,55.998,7.03C243.559,138.064,215.22,119.485,215.22,119.485z"/>
	<g>
		<path fill="#A3D783" d="M263.272,108.809c-0.541,0-0.974,0.06-1.751,0.149c-0.004-3.925,0.961-6.58,4.735-6.586
			c1.755-0.009,3.099,0.571,5.202,2.006c0.438-0.733,0.365-2.396-0.024-2.899c-1.789-0.94-3.822-1.506-5.805-1.499
			c-2.811,0.007-4.865,1.367-5.79,3.794c-0.116,0.285-0.203,0.565-0.292,0.875c-0.084-0.316-0.162-0.585-0.274-0.875
			c-0.939-2.424-3.01-3.773-5.812-3.77c-1.581,0.002-3.157,0.321-4.629,0.91c-0.396,0.161-0.787,0.346-1.172,0.554
			c-0.473,0.5-0.335,2.387-0.025,2.876c0.71-0.458,1.415-0.922,2.185-1.284c0.606-0.291,1.256-0.491,1.923-0.567
			c0.362-0.054,0.736-0.091,1.105-0.091c3.774-0.011,4.752,2.646,4.759,6.572c-0.777-0.086-1.208-0.137-1.747-0.137
			c-6.742,0.015-10.353,2.602-10.342,7.279c0.013,3.842,2.427,6.317,6.046,6.311c3.038-0.009,6.039-0.658,7.983-5.961
			c1.919,5.323,5.04,5.957,8.084,5.951c3.619-0.012,6.025-2.534,6.014-6.369C273.634,111.367,270.006,108.8,263.272,108.809
			 M257.658,111.982c0.012,4.377-1.385,8.259-5.746,8.269c-2.297,0.002-3.938-1.654-3.938-4c-0.015-4.692,5.235-5.156,8.194-5.162
			c0.283,0,0.825,0.041,1.482,0.083L257.658,111.982z M267.271,120.212c-4.361,0.012-5.76-3.865-5.779-8.236l-0.002-0.807
			c0.661-0.05,1.205-0.098,1.476-0.098c2.961-0.012,8.214,0.429,8.233,5.115C271.203,118.539,269.567,120.206,267.271,120.212"/>
		<path fill="#A3D783" d="M258.204,99.938c-0.253-0.205-0.484-2.056,0.006-2.715c0.718-0.348,2.016-0.355,2.76,0.004
			c0.319,0.188,0.404,2.191-0.002,2.724C260.457,100.3,258.699,100.331,258.204,99.938"/>
	</g>
	<g>
		<path fill="#4A7628" d="M213.531,101.656c-6.01-6.5-12.012-14.267-16.291-22.837c-12.357-24.703-20.15-24.344-62.124-30.581
			c-41.974-6.235-66.199-10.913-77.712-20.147c0,0-2.397-0.72-1.317,1.679c1.08,2.399,3.116,12.113-2.522,32.379
			c-5.632,20.27,9.234,32.141,9.234,32.141s1.323,0.718-0.237-1.56c-1.561-2.279-11.632-18.588,2.038-45.21
			c0,0,1.44-3.958,4.799-2.038c3.357,1.919,11.392,8.275,76.751,12.353c0,0,34.659,1.317,41.852,14.149
			c4.339,7.731,11.899,19.599,22.675,30.566h-0.001c0,0,40.837,45.095,73.856,15.303
			C279.706,121.962,253.011,141.13,213.531,101.656z"/>
		<path fill="#4A7628" d="M284.531,117.854c0.519-0.443,0.79-0.712,0.79-0.712C285.059,117.389,284.794,117.618,284.531,117.854z"/>
		<path fill="#4A7628" d="M217.37,119.605c-16.137-10.308-41.791-26.163-57.55-33.23c-24.346-10.913-53.848-12.712-112.489,21.228
			c0,0-15.832,9.715-4.081,10.077c11.755,0.356,27.583,2.154,24.948,9.833c-2.641,7.667-11.276,12.712,2.997,16.671
			c14.271,3.958,46.29,2.397,34.896,11.625c-11.391,9.24-8.156,14.035,9.355,14.872c17.509,0.84,35.378,0.725,32.38,4.683
			c-3,3.959-1.32,3.359,3.238,3.597c4.557,0.237,23.865,0.237,15.231,7.677c-8.635,7.433-23.746,20.268,7.794,40.891
			c0,0-24.345-19.785-8.874-33.096c15.47-13.312,14.631-15.597-4.317-17.27c-18.949-1.687,6.835-9.354-25.426-11.039
			c-32.26-1.673-34.06-1.199-26.862-8.267c7.193-7.08,9.713-13.312-17.269-13.798c-26.985-0.475-19.549-12.712-19.549-15.834
			c0-3.113,1.08-10.189-5.996-13.424c-7.078-3.24-11.754-2.403,7.913-14.753c19.667-12.35,56.606-27.222,92.704-6.837
			c24.164,13.647,36.124,21.648,47.617,27.791l-0.003,0.001c36.331,20.896,56,7.03,56,7.03
			C246.626,137.605,219.752,121.115,217.37,119.605z"/>
	</g>
	<g>
		<path fill="#4A7628" d="M340,208.805c0,1.494-1.159,2.668-2.663,2.668c-1.502,0-2.66-1.174-2.66-2.668s1.158-2.66,2.66-2.66
			C338.841,206.145,340,207.311,340,208.805z M335.091,208.805c0,1.277,0.958,2.29,2.245,2.29c1.289,0,2.248-1.013,2.248-2.29
			c0-1.269-0.959-2.276-2.248-2.276C336.049,206.526,335.091,207.536,335.091,208.805z M336.751,210.344h-0.38v-3.077h1.182
			c0.691,0,1,0.301,1,0.856c0,0.545-0.358,0.787-0.772,0.861l0.915,1.361h-0.444l-0.864-1.361h-0.638v1.359H336.751z
			 M337.252,208.66c0.465,0,0.923-0.015,0.923-0.537c0-0.432-0.357-0.536-0.73-0.536h-0.694v1.072L337.252,208.66L337.252,208.66z"
			/>
	</g>
</g>
</svg>
