<?xml version="1.0" encoding="utf-8"?>
<!-- Generator: Adobe Illustrator 16.0.3, SVG Export Plug-In . SVG Version: 6.00 Build 0)  -->
<!DOCTYPE svg PUBLIC "-//W3C//DTD SVG 1.1//EN" "http://www.w3.org/Graphics/SVG/1.1/DTD/svg11.dtd">
<svg version="1.1" id="Layer_1" xmlns="http://www.w3.org/2000/svg" xmlns:xlink="http://www.w3.org/1999/xlink" x="0px" y="0px"
	 width="620px" height="620px" viewBox="-10 -10 620 620" enable-background="new -10 -10 620 620" xml:space="preserve">
<title>NDIS</title>
<path fill="#6A2875" d="M42.927,143.902c0,0-41.464,0-41.464,41.464v225.366c0,0,0,45.365,45.366,45.365h510.731
	c0,0,41.463,0,41.463-41.463V286.829c0,0,0-142.927-142.927-142.927H42.927z"/>
<path fill="#FFFFFF" d="M67.317,254.635c14.635,0,17.562,0,18.537,3.902c1.463,2.438,1.951,7.316,2.438,12.195
	c9.757-11.22,25.854-19.513,43.903-19.513c19.512,0,34.146,6.342,42.438,17.073c9.756,11.22,14.634,25.854,14.634,48.78v92.684
	c0,3.902-2.438,4.878-19.512,4.878h-1.951c-19.513,0-20.488-0.976-20.488-4.878v-80.488c0-20.976,0-27.317-4.878-32.683
	c-4.878-3.902-12.195-6.342-20.976-6.342c-6.829,0-14.634,1.464-20.487,4.878c-6.342,3.902-7.805,8.78-8.293,16.098v100.488
	c0,3.414-2.439,4.878-19.512,4.878H71.22c-19.513,0-20.488-1.464-20.488-4.878v-85.366c0-23.415-0.976-49.756-1.951-66.342
	c0-4.878,0.976-4.878,18.049-4.878h1.463L67.317,254.635z M305.854,300.975c-7.806-9.756-16.586-14.634-27.317-14.634
	c-21.463,0-32.195,18.049-32.195,50.244c0,18.049,4.879,29.268,9.757,36.098c5.854,5.854,14.634,8.292,23.414,8.292
	c8.293,0.488,18.049-2.927,22.927-7.805c2.927-2.927,3.902-7.805,3.902-16.098v-56.098H305.854z M327.805,183.902
	c18.049,0,19.512,1.464,19.512,4.879v185.365c0,6.342,2.927,7.805,8.78,7.805c3.415,0,3.903,1.464,3.903,12.195v3.415
	c0,10.731,0,13.171-2.928,14.634c-4.878,1.464-13.658,2.927-21.951,2.927c-13.17,0-22.438-5.854-26.341-14.634
	c-9.757,9.756-25.366,16.585-41.951,16.585c-39.024,0-63.415-30.731-63.415-80.487c-0.487-53.659,25.854-85.366,64.878-85.366
	c14.635,0,25.854,4.878,36.098,13.658v-76.097c0-3.415,0-4.879,20.488-4.879h1.951H327.805z M435.61,380
	c4.878-9.756,7.805-11.707,11.22-9.756c11.707,8.293,25.854,13.658,39.024,13.658c15.609,0,24.39-5.854,24.39-14.634
	c0-22.927-77.073-8.78-77.073-66.342c0-31.707,27.317-51.219,62.439-51.219c19.512,0,37.073,5.854,49.756,15.609
	c2.927,1.951,2.439,4.878-3.414,14.634l-2.439,4.878c-4.878,8.781-7.805,9.757-10.731,8.293c-9.757-6.341-19.513-9.756-30.732-9.756
	c-8.78,0-15.609,1.463-19.512,4.878c-2.927,2.439-4.878,4.878-4.878,8.78c0,22.927,78.049,10.732,78.049,65.366
	c0,14.634-5.854,27.317-15.61,36.585c-11.707,11.22-28.78,16.098-50.243,16.098c-23.415,0-43.902-7.316-56.098-17.561
	c-1.951-1.951-1.464-4.878,3.414-13.659l2.927-5.854H435.61z M398.048,254.635c18.049,0,19.513,0.976,19.513,4.878v150.244
	c0,3.414-1.951,4.878-19.513,4.878h-1.463c-19.513,0-20.488-1.464-20.488-4.878v-151.22c0-2.927,0.976-3.902,20.976-3.902h1.464
	H398.048z"/>
<path fill="#8AC53F" d="M396.585,237.561c14.634,0,26.829-11.708,26.829-26.829c0-14.635-11.707-26.83-26.829-26.83
	c-14.634,0-26.829,11.708-26.829,26.83C369.756,225.366,381.951,237.561,396.585,237.561"/>
</svg>
